# 3ds Max Wavefront OBJ Exporter v0.97b - (c)2007 guruware
# File Created: 15.04.2017 17:26:04

mtllib Floor_Straight.mtl

#
# object Floor_Straight
#

v  -120.8892 40.3259 49.2386
v  -120.8892 40.3259 -39.8702
v  69.8780 40.3259 -39.8702
v  69.8780 40.3259 49.2386
v  -120.8892 46.0518 49.2386
v  69.8780 46.0518 49.2386
v  69.8780 46.0518 -39.8702
v  -120.8892 46.0518 -39.8702
v  -120.8892 36.8920 49.2386
v  -120.8892 36.8920 -39.8702
v  69.8780 36.8920 -39.8702
v  69.8780 36.8920 49.2386
v  -120.8892 40.1515 49.2386
v  69.8780 40.1515 49.2386
v  69.8780 40.1515 -39.8702
v  -120.8892 40.1515 -39.8702
v  -120.8892 25.8734 49.2386
v  -120.8892 25.8734 -39.8702
v  69.8780 25.8734 -39.8702
v  69.8780 25.8734 49.2386
v  -120.8892 36.4630 49.2386
v  69.8780 36.4630 49.2386
v  69.8780 36.4630 -39.8702
v  -120.8892 36.4630 -39.8702
# 24 vertices

vn 0.0000 -1.0000 -0.0000
vn 0.0000 1.0000 -0.0000
vn 0.0000 0.0000 1.0000
vn 1.0000 0.0000 -0.0000
vn 0.0000 0.0000 -1.0000
vn -1.0000 0.0000 -0.0000
# 6 vertex normals

vt 0.4685 0.0005 0.0000
vt 0.7016 0.0005 0.0000
vt 0.7016 0.4996 0.0000
vt 0.4685 0.4996 0.0000
vt 0.4676 0.5004 0.0000
vt 0.4676 0.9995 0.0000
vt 0.2345 0.9995 0.0000
vt 0.2345 0.5004 0.0000
vt 0.7460 0.5004 0.0000
vt 0.7460 0.9995 0.0000
vt 0.7311 0.9995 0.0000
vt 0.7311 0.5004 0.0000
vt 0.7999 0.0005 0.0000
vt 0.7999 0.2336 0.0000
vt 0.7849 0.2336 0.0000
vt 0.7849 0.0005 0.0000
vt 0.7460 0.0005 0.0000
vt 0.7460 0.4996 0.0000
vt 0.7311 0.4996 0.0000
vt 0.7311 0.0005 0.0000
vt 0.7713 0.4685 0.0000
vt 0.7713 0.7016 0.0000
vt 0.7563 0.7016 0.0000
vt 0.7563 0.4685 0.0000
vt 0.2345 0.0005 0.0000
vt 0.4676 0.0005 0.0000
vt 0.4676 0.4996 0.0000
vt 0.2345 0.4996 0.0000
vt 0.2336 0.5004 0.0000
vt 0.2336 0.9995 0.0000
vt 0.0005 0.9995 0.0000
vt 0.0005 0.5004 0.0000
vt 0.7840 0.0005 0.0000
vt 0.7840 0.4996 0.0000
vt 0.7755 0.4996 0.0000
vt 0.7755 0.0005 0.0000
vt 0.7840 0.5004 0.0000
vt 0.7840 0.7336 0.0000
vt 0.7755 0.7336 0.0000
vt 0.7755 0.5004 0.0000
vt 0.7555 0.4685 0.0000
vt 0.7555 0.9675 0.0000
vt 0.7469 0.9675 0.0000
vt 0.7469 0.4685 0.0000
vt 0.7934 0.2345 0.0000
vt 0.7934 0.4676 0.0000
vt 0.7849 0.4676 0.0000
vt 0.7849 0.2345 0.0000
vt 0.4685 0.5004 0.0000
vt 0.7016 0.5004 0.0000
vt 0.7016 0.9995 0.0000
vt 0.4685 0.9995 0.0000
vt 0.2336 0.0005 0.0000
vt 0.2336 0.4996 0.0000
vt 0.0005 0.4996 0.0000
vt 0.0005 0.0005 0.0000
vt 0.7302 0.0005 0.0000
vt 0.7302 0.4996 0.0000
vt 0.7025 0.4996 0.0000
vt 0.7025 0.0005 0.0000
vt 0.7746 0.0005 0.0000
vt 0.7746 0.2336 0.0000
vt 0.7469 0.2336 0.0000
vt 0.7469 0.0005 0.0000
vt 0.7302 0.5004 0.0000
vt 0.7302 0.9995 0.0000
vt 0.7025 0.9995 0.0000
vt 0.7025 0.5004 0.0000
vt 0.7746 0.2345 0.0000
vt 0.7746 0.4676 0.0000
vt 0.7469 0.4676 0.0000
vt 0.7469 0.2345 0.0000
# 72 texture coords

g Floor_Straight
usemtl Material__36
s 2
f 1/1/1 2/2/1 3/3/1 4/4/1 
s 4
f 5/5/2 6/6/2 7/7/2 8/8/2 
s 8
f 1/9/3 4/10/3 6/11/3 5/12/3 
s 16
f 4/13/4 3/14/4 7/15/4 6/16/4 
s 32
f 3/17/5 2/18/5 8/19/5 7/20/5 
s 64
f 2/21/6 1/22/6 5/23/6 8/24/6 
usemtl Material__37
s 2
f 9/25/1 10/26/1 11/27/1 12/28/1 
s 4
f 13/29/2 14/30/2 15/31/2 16/32/2 
s 8
f 9/33/3 12/34/3 14/35/3 13/36/3 
s 16
f 12/37/4 11/38/4 15/39/4 14/40/4 
s 32
f 11/41/5 10/42/5 16/43/5 15/44/5 
s 64
f 10/45/6 9/46/6 13/47/6 16/48/6 
usemtl Material__38
s 2
f 17/49/1 18/50/1 19/51/1 20/52/1 
s 4
f 21/53/2 22/54/2 23/55/2 24/56/2 
s 8
f 17/57/3 20/58/3 22/59/3 21/60/3 
s 16
f 20/61/4 19/62/4 23/63/4 22/64/4 
s 32
f 19/65/5 18/66/5 24/67/5 23/68/5 
s 64
f 18/69/6 17/70/6 21/71/6 24/72/6 
# 18 polygons

