# 3ds Max Wavefront OBJ Exporter v0.97b - (c)2007 guruware
# File Created: 15.04.2017 17:28:33

mtllib Floor_Left.mtl

#
# object Floor_Left
#

v  -116.8435 40.3259 49.2386
v  -117.6122 40.3259 49.1981
v  -118.3000 40.3259 49.0768
v  -118.9069 40.3259 48.8745
v  -119.4328 40.3259 48.5913
v  -119.8778 40.3259 48.2272
v  -120.2419 40.3259 47.7821
v  -120.5251 40.3259 47.2562
v  -120.7274 40.3259 46.6493
v  -120.8488 40.3259 45.9616
v  -120.8892 40.3259 45.1929
v  -120.8892 40.3259 -39.8702
v  69.8780 40.3259 -39.8702
v  69.8780 40.3259 49.2386
v  -120.8892 46.0518 45.1929
v  -120.8488 46.0518 45.9616
v  -120.7274 46.0518 46.6493
v  -120.5251 46.0518 47.2562
v  -120.2419 46.0518 47.7821
v  -119.8778 46.0518 48.2272
v  -119.4328 46.0518 48.5913
v  -118.9069 46.0518 48.8745
v  -118.3000 46.0518 49.0768
v  -117.6122 46.0518 49.1981
v  -116.8435 46.0518 49.2386
v  69.8780 46.0518 49.2386
v  69.8780 46.0518 -39.8702
v  -120.8892 46.0518 -39.8702
v  -116.8435 36.8920 49.2386
v  -117.6122 36.8920 49.1981
v  -118.3000 36.8920 49.0768
v  -118.9069 36.8920 48.8745
v  -119.4328 36.8920 48.5913
v  -119.8778 36.8920 48.2272
v  -120.2419 36.8920 47.7821
v  -120.5251 36.8920 47.2562
v  -120.7274 36.8920 46.6493
v  -120.8488 36.8920 45.9616
v  -120.8892 36.8920 45.1929
v  -120.8892 36.8920 -39.8702
v  69.8780 36.8920 -39.8702
v  69.8780 36.8920 49.2386
v  -120.8892 40.1515 45.1929
v  -120.8488 40.1515 45.9616
v  -120.7274 40.1515 46.6493
v  -120.5251 40.1515 47.2562
v  -120.2419 40.1515 47.7821
v  -119.8778 40.1515 48.2272
v  -119.4328 40.1515 48.5913
v  -118.9069 40.1515 48.8745
v  -118.3000 40.1515 49.0768
v  -117.6122 40.1515 49.1981
v  -116.8435 40.1515 49.2386
v  69.8780 40.1515 49.2386
v  69.8780 40.1515 -39.8702
v  -120.8892 40.1515 -39.8702
v  -116.8435 25.8734 49.2386
v  -117.6122 25.8734 49.1981
v  -118.3000 25.8734 49.0768
v  -118.9069 25.8734 48.8745
v  -119.4328 25.8734 48.5913
v  -119.8778 25.8734 48.2272
v  -120.2419 25.8734 47.7821
v  -120.5251 25.8734 47.2562
v  -120.7274 25.8734 46.6493
v  -120.8488 25.8734 45.9616
v  -120.8892 25.8734 45.1929
v  -120.8892 25.8734 -39.8702
v  69.8780 25.8734 -39.8702
v  69.8780 25.8734 49.2386
v  -120.8892 36.4630 45.1929
v  -120.8488 36.4630 45.9616
v  -120.7274 36.4630 46.6493
v  -120.5251 36.4630 47.2562
v  -120.2419 36.4630 47.7821
v  -119.8778 36.4630 48.2272
v  -119.4328 36.4630 48.5913
v  -118.9069 36.4630 48.8745
v  -118.3000 36.4630 49.0768
v  -117.6122 36.4630 49.1981
v  -116.8435 36.4630 49.2386
v  69.8780 36.4630 49.2386
v  69.8780 36.4630 -39.8702
v  -120.8892 36.4630 -39.8702
# 84 vertices

vn 0.0000 -1.0000 -0.0000
vn 0.0000 1.0000 -0.0000
vn -0.0263 0.0000 0.9997
vn 0.0000 0.0000 1.0000
vn 1.0000 0.0000 -0.0000
vn 0.0000 0.0000 -1.0000
vn -1.0000 0.0000 -0.0000
vn -0.9997 0.0000 0.0263
vn -0.1134 0.0000 0.9936
vn -0.2457 0.0000 0.9694
vn -0.3966 0.0000 0.9180
vn -0.5562 0.0000 0.8310
vn -0.7071 0.0000 0.7071
vn -0.8310 0.0000 0.5562
vn -0.9180 0.0000 0.3966
vn -0.9694 0.0000 0.2457
vn -0.9936 0.0000 0.1134
# 17 vertex normals

vt 0.4685 0.0111 0.0000
vt 0.4686 0.0091 0.0000
vt 0.4689 0.0073 0.0000
vt 0.4694 0.0057 0.0000
vt 0.4702 0.0043 0.0000
vt 0.4711 0.0031 0.0000
vt 0.4723 0.0022 0.0000
vt 0.4737 0.0015 0.0000
vt 0.4753 0.0009 0.0000
vt 0.4771 0.0006 0.0000
vt 0.4791 0.0005 0.0000
vt 0.7016 0.0005 0.0000
vt 0.7016 0.4996 0.0000
vt 0.4685 0.4996 0.0000
vt 0.4570 0.5004 0.0000
vt 0.4590 0.5005 0.0000
vt 0.4608 0.5009 0.0000
vt 0.4624 0.5014 0.0000
vt 0.4638 0.5021 0.0000
vt 0.4650 0.5031 0.0000
vt 0.4659 0.5042 0.0000
vt 0.4667 0.5056 0.0000
vt 0.4672 0.5072 0.0000
vt 0.4675 0.5090 0.0000
vt 0.4676 0.5110 0.0000
vt 0.4676 0.9995 0.0000
vt 0.2345 0.9995 0.0000
vt 0.2345 0.5004 0.0000
vt 0.7460 0.5084 0.0000
vt 0.7460 0.9969 0.0000
vt 0.7311 0.9969 0.0000
vt 0.7311 0.5084 0.0000
vt 0.7999 0.0005 0.0000
vt 0.7999 0.2336 0.0000
vt 0.7849 0.2336 0.0000
vt 0.7849 0.0005 0.0000
vt 0.7460 0.0005 0.0000
vt 0.7460 0.4996 0.0000
vt 0.7311 0.4996 0.0000
vt 0.7311 0.0005 0.0000
vt 0.7713 0.4658 0.0000
vt 0.7713 0.6884 0.0000
vt 0.7563 0.6884 0.0000
vt 0.7563 0.4658 0.0000
vt 0.0005 0.5110 0.0000
vt 0.0006 0.5090 0.0000
vt 0.0009 0.5072 0.0000
vt 0.0015 0.5056 0.0000
vt 0.0022 0.5042 0.0000
vt 0.0031 0.5031 0.0000
vt 0.0043 0.5021 0.0000
vt 0.0057 0.5014 0.0000
vt 0.0073 0.5009 0.0000
vt 0.0091 0.5005 0.0000
vt 0.0111 0.5004 0.0000
vt 0.2336 0.5004 0.0000
vt 0.2336 0.9995 0.0000
vt 0.0005 0.9995 0.0000
vt 0.4570 0.0005 0.0000
vt 0.4590 0.0006 0.0000
vt 0.4608 0.0009 0.0000
vt 0.4624 0.0015 0.0000
vt 0.4638 0.0022 0.0000
vt 0.4650 0.0031 0.0000
vt 0.4659 0.0043 0.0000
vt 0.4667 0.0057 0.0000
vt 0.4672 0.0073 0.0000
vt 0.4675 0.0091 0.0000
vt 0.4676 0.0111 0.0000
vt 0.4676 0.4996 0.0000
vt 0.2345 0.4996 0.0000
vt 0.2345 0.0005 0.0000
vt 0.7555 0.4738 0.0000
vt 0.7555 0.9623 0.0000
vt 0.7469 0.9623 0.0000
vt 0.7469 0.4738 0.0000
vt 0.7840 0.5004 0.0000
vt 0.7840 0.7336 0.0000
vt 0.7755 0.7336 0.0000
vt 0.7755 0.5004 0.0000
vt 0.7840 0.0005 0.0000
vt 0.7840 0.4996 0.0000
vt 0.7755 0.4996 0.0000
vt 0.7755 0.0005 0.0000
vt 0.7934 0.2345 0.0000
vt 0.7934 0.4570 0.0000
vt 0.7849 0.4570 0.0000
vt 0.7849 0.2345 0.0000
vt 0.4685 0.5110 0.0000
vt 0.4686 0.5090 0.0000
vt 0.4689 0.5072 0.0000
vt 0.4694 0.5056 0.0000
vt 0.4702 0.5042 0.0000
vt 0.4711 0.5031 0.0000
vt 0.4723 0.5021 0.0000
vt 0.4737 0.5014 0.0000
vt 0.4753 0.5009 0.0000
vt 0.4771 0.5005 0.0000
vt 0.4791 0.5004 0.0000
vt 0.7016 0.5004 0.0000
vt 0.7016 0.9995 0.0000
vt 0.4685 0.9995 0.0000
vt 0.2230 0.0005 0.0000
vt 0.2250 0.0006 0.0000
vt 0.2268 0.0009 0.0000
vt 0.2284 0.0015 0.0000
vt 0.2298 0.0022 0.0000
vt 0.2310 0.0031 0.0000
vt 0.2319 0.0043 0.0000
vt 0.2327 0.0057 0.0000
vt 0.2332 0.0073 0.0000
vt 0.2335 0.0091 0.0000
vt 0.2336 0.0111 0.0000
vt 0.2336 0.4996 0.0000
vt 0.0005 0.4996 0.0000
vt 0.0005 0.0005 0.0000
vt 0.7302 0.5084 0.0000
vt 0.7302 0.9969 0.0000
vt 0.7025 0.9969 0.0000
vt 0.7025 0.5084 0.0000
vt 0.7746 0.0005 0.0000
vt 0.7746 0.2336 0.0000
vt 0.7469 0.2336 0.0000
vt 0.7469 0.0005 0.0000
vt 0.7302 0.0005 0.0000
vt 0.7302 0.4996 0.0000
vt 0.7025 0.4996 0.0000
vt 0.7025 0.0005 0.0000
vt 0.7746 0.2345 0.0000
vt 0.7746 0.4570 0.0000
vt 0.7469 0.4570 0.0000
vt 0.7469 0.2345 0.0000
vt 0.7311 0.5064 0.0000
vt 0.7460 0.5064 0.0000
vt 0.7469 0.4718 0.0000
vt 0.7555 0.4718 0.0000
vt 0.7025 0.5064 0.0000
vt 0.7302 0.5064 0.0000
vt 0.7311 0.5046 0.0000
vt 0.7460 0.5046 0.0000
vt 0.7311 0.5030 0.0000
vt 0.7460 0.5030 0.0000
vt 0.7311 0.5016 0.0000
vt 0.7460 0.5016 0.0000
vt 0.7311 0.5004 0.0000
vt 0.7460 0.5004 0.0000
vt 0.7563 0.6963 0.0000
vt 0.7563 0.6951 0.0000
vt 0.7713 0.6951 0.0000
vt 0.7713 0.6963 0.0000
vt 0.7563 0.6938 0.0000
vt 0.7713 0.6938 0.0000
vt 0.7563 0.6922 0.0000
vt 0.7713 0.6922 0.0000
vt 0.7563 0.6904 0.0000
vt 0.7713 0.6904 0.0000
vt 0.7469 0.4700 0.0000
vt 0.7555 0.4700 0.0000
vt 0.7469 0.4684 0.0000
vt 0.7555 0.4684 0.0000
vt 0.7469 0.4670 0.0000
vt 0.7555 0.4670 0.0000
vt 0.7469 0.4658 0.0000
vt 0.7555 0.4658 0.0000
vt 0.7849 0.4650 0.0000
vt 0.7849 0.4638 0.0000
vt 0.7934 0.4638 0.0000
vt 0.7934 0.4650 0.0000
vt 0.7849 0.4624 0.0000
vt 0.7934 0.4624 0.0000
vt 0.7849 0.4608 0.0000
vt 0.7934 0.4608 0.0000
vt 0.7849 0.4590 0.0000
vt 0.7934 0.4590 0.0000
vt 0.7025 0.5046 0.0000
vt 0.7302 0.5046 0.0000
vt 0.7025 0.5030 0.0000
vt 0.7302 0.5030 0.0000
vt 0.7025 0.5016 0.0000
vt 0.7302 0.5016 0.0000
vt 0.7025 0.5004 0.0000
vt 0.7302 0.5004 0.0000
vt 0.7469 0.4650 0.0000
vt 0.7469 0.4638 0.0000
vt 0.7746 0.4638 0.0000
vt 0.7746 0.4650 0.0000
vt 0.7469 0.4624 0.0000
vt 0.7746 0.4624 0.0000
vt 0.7469 0.4608 0.0000
vt 0.7746 0.4608 0.0000
vt 0.7469 0.4590 0.0000
vt 0.7746 0.4590 0.0000
# 192 texture coords

g Floor_Left
usemtl Material__36
s 1
f 1/1/1 2/2/1 3/3/1 4/4/1 5/5/1 6/6/1 7/7/1 8/8/1 9/9/1 10/10/1 11/11/1 12/12/1 13/13/1 14/14/1 
f 15/15/2 16/16/2 17/17/2 18/18/2 19/19/2 20/20/2 21/21/2 22/22/2 23/23/2 24/24/2 25/25/2 26/26/2 27/27/2 28/28/2 
s 2
f 1/29/3 14/30/4 26/31/4 25/32/3 
s 4
f 14/33/5 13/34/5 27/35/5 26/36/5 
s 8
f 13/37/6 12/38/6 28/39/6 27/40/6 
s 2
f 12/41/7 11/42/8 15/43/8 28/44/7 
usemtl Material__37
s 1
f 29/45/1 30/46/1 31/47/1 32/48/1 33/49/1 34/50/1 35/51/1 36/52/1 37/53/1 38/54/1 39/55/1 40/56/1 41/57/1 42/58/1 
f 43/59/2 44/60/2 45/61/2 46/62/2 47/63/2 48/64/2 49/65/2 50/66/2 51/67/2 52/68/2 53/69/2 54/70/2 55/71/2 56/72/2 
s 2
f 29/73/3 42/74/4 54/75/4 53/76/3 
s 4
f 42/77/5 41/78/5 55/79/5 54/80/5 
s 8
f 41/81/6 40/82/6 56/83/6 55/84/6 
s 2
f 40/85/7 39/86/8 43/87/8 56/88/7 
usemtl Material__38
s 1
f 57/89/1 58/90/1 59/91/1 60/92/1 61/93/1 62/94/1 63/95/1 64/96/1 65/97/1 66/98/1 67/99/1 68/100/1 69/101/1 70/102/1 
f 71/103/2 72/104/2 73/105/2 74/106/2 75/107/2 76/108/2 77/109/2 78/110/2 79/111/2 80/112/2 81/113/2 82/114/2 83/115/2 84/116/2 
s 2
f 57/117/3 70/118/4 82/119/4 81/120/3 
s 4
f 70/121/5 69/122/5 83/123/5 82/124/5 
s 8
f 69/125/6 68/126/6 84/127/6 83/128/6 
s 2
f 68/129/7 67/130/8 71/131/8 84/132/7 
usemtl Material__36
f 25/32/3 24/133/9 2/134/9 1/29/3 
usemtl Material__37
f 53/76/3 52/135/9 30/136/9 29/73/3 
usemtl Material__38
f 81/120/3 80/137/9 58/138/9 57/117/3 
usemtl Material__36
f 24/133/9 23/139/10 3/140/10 2/134/9 
f 23/139/10 22/141/11 4/142/11 3/140/10 
f 22/141/11 21/143/12 5/144/12 4/142/11 
f 21/143/12 20/145/13 6/146/13 5/144/12 
f 20/147/13 19/148/14 7/149/14 6/150/13 
f 19/148/14 18/151/15 8/152/15 7/149/14 
f 18/151/15 17/153/16 9/154/16 8/152/15 
f 17/153/16 16/155/17 10/156/17 9/154/16 
f 16/155/17 15/43/8 11/42/8 10/156/17 
usemtl Material__37
f 52/135/9 51/157/10 31/158/10 30/136/9 
f 51/157/10 50/159/11 32/160/11 31/158/10 
f 50/159/11 49/161/12 33/162/12 32/160/11 
f 49/161/12 48/163/13 34/164/13 33/162/12 
f 48/165/13 47/166/14 35/167/14 34/168/13 
f 47/166/14 46/169/15 36/170/15 35/167/14 
f 46/169/15 45/171/16 37/172/16 36/170/15 
f 45/171/16 44/173/17 38/174/17 37/172/16 
f 44/173/17 43/87/8 39/86/8 38/174/17 
usemtl Material__38
f 80/137/9 79/175/10 59/176/10 58/138/9 
f 79/175/10 78/177/11 60/178/11 59/176/10 
f 78/177/11 77/179/12 61/180/12 60/178/11 
f 77/179/12 76/181/13 62/182/13 61/180/12 
f 76/183/13 75/184/14 63/185/14 62/186/13 
f 75/184/14 74/187/15 64/188/15 63/185/14 
f 74/187/15 73/189/16 65/190/16 64/188/15 
f 73/189/16 72/191/17 66/192/17 65/190/16 
f 72/191/17 71/131/8 67/130/8 66/192/17 
# 48 polygons

